<?xml version="1.0" encoding="UTF-8"?>
<svg id="Layer_2" data-name="Layer 2" xmlns="http://www.w3.org/2000/svg" viewBox="0 0 1062.42 141.62">
  <defs>
    <style>
      .cls-1 {
        fill: #65a30d;
      }

      .cls-2 {
        fill: #1c1e1a;
      }
    </style>
  </defs>
  <g id="Layer_2-2" data-name="Layer 2">
    <g id="Layer_1-2" data-name="Layer 1-2">
      <path class="cls-1" d="m141.58,11.8c0-6.52-5.28-11.8-11.8-11.8H11.8C5.28,0,0,5.28,0,11.8v43.12c.23,41.68,29.28,77.64,69.97,86.66.39.05.79.05,1.19,0,.39.05.79.05,1.19,0,40.64-9.37,69.38-45.6,69.25-87.3V11.8h-.02Zm-32.45,23.6v2.95c0,1.63-1.32,2.95-2.95,2.95h-28.02c-1.63,0-2.95-1.32-2.95-2.95h0v-8.85c0-1.63,1.32-2.95,2.95-2.95h22.12c4.88,0,8.85,3.96,8.85,8.85Zm-50.14,29.5c-1.63,0-2.95-1.32-2.95-2.95h0v-8.85c0-1.63,1.32-2.95,2.95-2.95h23.6c1.63,0,2.95,1.32,2.95,2.95h0v8.85c0,1.63-1.32,2.95-2.95,2.95,0,0-23.6,0-23.6,0Zm-23.6,0c-1.63,0-2.95-1.32-2.95-2.95h0v-8.85c0-1.63,1.32-2.95,2.95-2.95h8.85c1.63,0,2.95,1.32,2.95,2.95h0v8.85c0,1.63-1.32,2.95-2.95,2.95,0,0-8.85,0-8.85,0Zm58.99-11.8c0-1.63,1.32-2.95,2.95-2.95h8.85c1.63,0,2.95,1.32,2.95,2.95h0v8.85c0,1.63-1.32,2.95-2.95,2.95h-8.85c-1.63,0-2.95-1.32-2.95-2.95h0s0-8.85,0-8.85Zm-53.09-26.48h22.12c1.63,0,2.95,1.32,2.95,2.95h0v8.85c0,1.63-1.32,2.95-2.95,2.95h-28.02c-1.63,0-2.95-1.32-2.95-2.95h0v-3.02c.03-4.86,3.99-8.78,8.85-8.8,0,0,0,.02,0,.02Zm-8.85,53.09v-3.02c0-1.63,1.32-2.95,2.95-2.95h28.02c1.63,0,2.95,1.32,2.95,2.95h0v8.85c0,1.63-1.32,2.95-2.95,2.95h-22.12c-4.86,0-8.82-3.92-8.85-8.8v.02Zm67.84,8.8h-22.12c-1.63,0-2.95-1.32-2.95-2.95h0v-8.85c0-1.63,1.32-2.95,2.95-2.95h28.02c1.63,0,2.95,1.32,2.95,2.95h0v2.95c0,4.89-3.96,8.85-8.85,8.85Z"/>
      <g>
        <path class="cls-2" d="m221.44,21.92h36.73c10.73,0,20.04,1.15,27.95,3.46,7.91,2.31,14.45,5.61,19.65,9.9s9.06,9.51,11.6,15.64c2.54,6.13,3.81,13.02,3.81,20.67s-1.26,13.98-3.78,20.16c-2.52,6.17-6.37,11.52-11.54,16.02-5.17,4.51-11.71,8.04-19.61,10.58-7.91,2.54-17.22,3.81-27.95,3.81l-36.86-.06V21.92h0Zm41.73,82.62c6.07,0,11.39-.78,15.96-2.34,4.57-1.56,8.39-3.77,11.44-6.63s5.35-6.32,6.89-10.38,2.31-8.59,2.31-13.59-.77-9.35-2.31-13.3-3.84-7.31-6.89-10.06c-3.06-2.76-6.87-4.88-11.44-6.38s-9.89-2.24-15.96-2.24h-21.41v64.93h21.41Z"/>
        <path class="cls-2" d="m329.04,84.03c0-5.13,1.05-10.03,3.14-14.71,2.09-4.68,5.11-8.81,9.04-12.4,3.93-3.59,8.75-6.45,14.45-8.59,5.71-2.14,12.19-3.2,19.45-3.2s13.73,1.08,19.52,3.24c5.79,2.16,10.7,5.12,14.74,8.88,4.04,3.76,7.14,8.18,9.29,13.27,2.16,5.09,3.24,10.53,3.24,16.34,0,.73-.01,1.51-.03,2.34s-.07,1.59-.16,2.28h-71.53c.81,2.27,2.12,4.34,3.94,6.22,1.82,1.88,4.09,3.5,6.83,4.87,2.73,1.37,5.9,2.43,9.49,3.17,3.59.75,7.56,1.12,11.92,1.12s8.7-.46,13.01-1.38c4.32-.92,8.44-2.08,12.37-3.49l6.41,14.49c-2.48,1.15-4.99,2.17-7.53,3.04-2.54.88-5.19,1.6-7.95,2.18s-5.64,1.01-8.65,1.31c-3.01.3-6.18.45-9.52.45-8.5,0-15.96-1.03-22.37-3.08s-11.77-4.85-16.09-8.4-7.56-7.71-9.74-12.5-3.27-9.93-3.27-15.45h0Zm72.75-7.37c-.68-2.09-1.74-4.05-3.17-5.87-1.43-1.82-3.22-3.4-5.35-4.74-2.14-1.35-4.62-2.4-7.44-3.17-2.82-.77-5.92-1.15-9.29-1.15-3.59,0-6.86.41-9.81,1.22s-5.53,1.9-7.76,3.27c-2.22,1.37-4.07,2.95-5.54,4.74s-2.55,3.7-3.24,5.71h51.6Z"/>
        <path class="cls-2" d="m444,60.7h-12.95v-14.23h12.95c0-5.13.73-9.69,2.18-13.69,1.45-3.99,3.56-7.37,6.31-10.13,2.76-2.76,6.11-4.86,10.06-6.31,3.95-1.45,8.41-2.18,13.36-2.18,3.46,0,6.86.33,10.19.99,3.33.66,6.28,1.61,8.85,2.85l-6.73,15.96c-1.03-.6-2.47-1.15-4.33-1.67-1.86-.51-3.9-.77-6.12-.77-4.36,0-7.87,1.23-10.54,3.69s-4.09,6.21-4.26,11.25h23.91v14.23h-23.91v61.41h-18.97v-61.41h0Z"/>
        <path class="cls-2" d="m491.34,84.03c0-5.13,1.05-10.03,3.14-14.71s5.11-8.81,9.04-12.4c3.93-3.59,8.75-6.45,14.45-8.59s12.19-3.2,19.45-3.2,13.73,1.08,19.52,3.24c5.79,2.16,10.7,5.12,14.74,8.88,4.04,3.76,7.14,8.18,9.29,13.27,2.16,5.09,3.24,10.53,3.24,16.34,0,.73-.01,1.51-.03,2.34s-.07,1.59-.16,2.28h-71.53c.81,2.27,2.12,4.34,3.94,6.22,1.82,1.88,4.09,3.5,6.83,4.87,2.73,1.37,5.9,2.43,9.49,3.17,3.59.75,7.56,1.12,11.92,1.12s8.7-.46,13.01-1.38c4.32-.92,8.44-2.08,12.37-3.49l6.41,14.49c-2.48,1.15-4.99,2.17-7.53,3.04-2.54.88-5.19,1.6-7.95,2.18s-5.64,1.01-8.65,1.31c-3.01.3-6.18.45-9.52.45-8.5,0-15.96-1.03-22.37-3.08s-11.77-4.85-16.09-8.4-7.56-7.71-9.74-12.5-3.27-9.93-3.27-15.45h0Zm72.75-7.37c-.68-2.09-1.74-4.05-3.17-5.87s-3.22-3.4-5.35-4.74c-2.14-1.35-4.62-2.4-7.44-3.17-2.82-.77-5.92-1.15-9.29-1.15-3.59,0-6.86.41-9.81,1.22s-5.53,1.9-7.76,3.27c-2.22,1.37-4.07,2.95-5.54,4.74s-2.55,3.7-3.24,5.71h51.6,0Z"/>
        <path class="cls-2" d="m598.04,46.47h18.97v6.41c5.04-2.86,9.86-4.87,14.45-6.03,4.59-1.15,9.09-1.73,13.49-1.73,5.77,0,11.11.84,16.02,2.53,4.91,1.69,9.17,4.2,12.76,7.53,3.59,3.33,6.4,7.49,8.43,12.47,2.03,4.98,3.04,10.74,3.04,17.27v37.18h-18.91v-34.1c0-4.14-.59-7.85-1.76-11.12-1.18-3.27-2.86-6.03-5.06-8.27s-4.87-3.95-8.01-5.13c-3.14-1.17-6.66-1.76-10.54-1.76-2.05,0-4.16.21-6.31.64-2.16.43-4.27,1.04-6.35,1.83-2.07.79-4.07,1.77-5.99,2.95s-3.68,2.51-5.26,4.01v50.96h-18.97V46.47h0Z"/>
        <path class="cls-2" d="m696.08,84.61c0-6.02,1.13-11.46,3.4-16.31,2.26-4.85,5.39-8.99,9.39-12.43,4-3.44,8.74-6.09,14.23-7.95s11.44-2.79,17.85-2.79c2.73,0,5.44.17,8.11.51s5.23.81,7.69,1.41,4.76,1.31,6.92,2.15c2.16.83,4.07,1.74,5.74,2.72V15.77h18.97v106.34h-18.97v-7.12c-1.67,1.15-3.63,2.24-5.9,3.27s-4.7,1.92-7.31,2.69c-2.61.77-5.31,1.38-8.11,1.83s-5.57.67-8.3.67c-6.41,0-12.3-.94-17.66-2.82s-9.97-4.53-13.81-7.95c-3.85-3.42-6.85-7.51-9.01-12.28-2.16-4.76-3.24-10.03-3.24-15.8h.01Zm19.93,0c0,3.03.61,5.9,1.83,8.59,1.22,2.69,2.97,5.05,5.26,7.08,2.29,2.03,5.04,3.63,8.27,4.81s6.85,1.76,10.87,1.76c2.56,0,5.13-.24,7.69-.74,2.56-.49,5.03-1.19,7.4-2.08,2.37-.9,4.59-1.99,6.67-3.27,2.07-1.28,3.88-2.71,5.42-4.29v-26.22c-1.92-1.54-3.95-2.84-6.09-3.91-2.14-1.07-4.32-1.94-6.54-2.63-2.22-.68-4.47-1.19-6.73-1.51-2.27-.32-4.47-.48-6.6-.48-4.36,0-8.24.59-11.63,1.76-3.4,1.18-6.26,2.79-8.59,4.84-2.33,2.05-4.11,4.46-5.35,7.24s-1.86,5.79-1.86,9.04h-.02Z"/>
        <path class="cls-2" d="m794.45,21.92h22.18l27.18,64.67,6.28,15.64,4.94-15.64,10-23.59-18.01-41.09h20.9l7.37,19.55,6.86-19.55h20.9l-18.01,41.09,10.19,24.1,6.15,15.13,4.74-15.38,27.31-64.93h22.18l-44.23,100.18h-20.13l-8.91-19.87-7.24-19.29-7.24,19.29-9.04,19.87h-20.13l-44.23-100.18h-.01Z"/>
        <path class="cls-2" d="m964.54,21.92h52.82c7.69,0,14.36.83,20,2.5s10.32,4.07,14.04,7.21c3.72,3.14,6.48,6.98,8.3,11.5,1.82,4.53,2.72,9.64,2.72,15.32,0,5.34-.9,10.28-2.69,14.81-1.79,4.53-4.54,8.45-8.24,11.76-3.7,3.31-8.36,5.9-14,7.76s-12.31,2.79-20,2.79l-32.62-.06v26.6h-20.32V21.92h-.01Zm53.33,56.02c3.85,0,7.21-.46,10.1-1.38,2.88-.92,5.3-2.22,7.24-3.91s3.4-3.74,4.36-6.15,1.44-5.1,1.44-8.04c0-5.94-1.93-10.57-5.8-13.88s-9.65-4.97-17.34-4.97h-33.01v38.33h33.01Z"/>
      </g>
    </g>
  </g>
</svg>